<svg xmlns="http://www.w3.org/2000/svg" viewBox="0 0 434.55 376.33"><defs><style>.cls-1{fill:#848689;}.cls-2{fill:#2a3439;}.cls-3{fill:#abaaac;}.cls-4{fill:#5b676d;}.cls-5{fill:#1f262a;}</style></defs><g id="Layer_2" data-name="Layer 2"><g id="Background"><g id="Triangle_Geometric" data-name="Triangle Geometric"><g id="Triangle_Taupe_Grey" data-name="Triangle Taupe Grey"><polygon class="cls-1" points="304.19 150.53 347.64 225.8 260.73 225.8 304.19 150.53"/><polygon class="cls-1" points="130.22 301.07 173.67 376.33 86.76 376.33 130.22 301.07"/><polygon class="cls-1" points="304.18 301.06 347.64 376.33 260.73 376.33 304.18 301.06"/><polygon class="cls-1" points="86.91 225.8 130.37 301.06 43.45 301.06 86.91 225.8"/><polygon class="cls-1" points="217.28 301.07 260.73 225.8 173.82 225.8 217.28 301.07"/></g><g id="Triangle_Gunmetal" data-name="Triangle Gunmetal"><polygon class="cls-2" points="391.09 301.06 434.55 376.33 347.64 376.33 391.09 301.06"/><polygon class="cls-2" points="173.82 75.27 217.28 150.53 130.37 150.53 173.82 75.27"/><polygon class="cls-2" points="217.28 301.06 260.73 376.33 173.82 376.33 217.28 301.06"/><polygon class="cls-2" points="260.73 225.8 304.19 150.54 217.28 150.54 260.73 225.8"/><polygon class="cls-2" points="130.37 301.06 173.82 225.8 86.91 225.8 130.37 301.06"/></g><g id="Triangle_Metallic_Silver" data-name="Triangle Metallic Silver"><polygon class="cls-3" points="43.45 301.07 86.91 376.33 0 376.33 43.45 301.07"/><polygon class="cls-3" points="260.73 75.27 304.19 150.53 217.28 150.53 260.73 75.27"/><polygon class="cls-3" points="217.13 150.53 260.58 225.8 173.67 225.8 217.13 150.53"/><polygon class="cls-3" points="260.73 225.8 304.18 301.07 217.28 301.07 260.73 225.8"/><polygon class="cls-3" points="347.64 376.33 391.09 301.06 304.18 301.06 347.64 376.33"/></g><g id="Triangle_Black_Coral" data-name="Triangle Black Coral"><polygon class="cls-4" points="130.37 150.53 173.82 225.8 86.91 225.8 130.37 150.53"/><polygon class="cls-4" points="347.64 225.8 391.09 301.06 304.18 301.06 347.64 225.8"/><polygon class="cls-4" points="173.82 225.8 217.28 301.07 130.37 301.07 173.82 225.8"/><polygon class="cls-4" points="217.28 150.53 260.73 75.27 173.82 75.27 217.28 150.53"/><polygon class="cls-4" points="260.73 376.33 304.18 301.06 217.28 301.06 260.73 376.33"/><polygon class="cls-4" points="86.76 376.33 130.22 301.07 43.31 301.07 86.76 376.33"/></g><g id="Triangle_Dark_Gunmetal" data-name="Triangle Dark Gunmetal"><polygon class="cls-5" points="217.28 0 260.73 75.27 173.82 75.27 217.28 0"/><polygon class="cls-5" points="173.82 225.8 217.28 150.53 130.37 150.53 173.82 225.8"/><polygon class="cls-5" points="304.18 301.07 347.64 225.8 260.73 225.8 304.18 301.07"/><polygon class="cls-5" points="173.67 376.33 217.13 301.06 130.22 301.06 173.67 376.33"/></g></g></g></g></svg>